<?xml version="1.0" standalone="no"?>
<!DOCTYPE svg PUBLIC "-//W3C//DTD SVG 20010904//EN"
 "http://www.w3.org/TR/2001/REC-SVG-20010904/DTD/svg10.dtd">
<svg version="1.0" xmlns="http://www.w3.org/2000/svg"
 width="260.000000pt" height="260.000000pt" viewBox="0 0 260.000000 260.000000"
 preserveAspectRatio="xMidYMid meet">
<metadata>
Created by potrace 1.14, written by Peter Selinger 2001-2017
</metadata>
<g transform="translate(0.000000,260.000000) scale(0.100000,-0.100000)"
fill="#000000" stroke="none">
<path d="M1190 2320 c-276 -33 -470 -180 -521 -396 -18 -78 -13 -229 10 -304
61 -197 213 -292 581 -365 249 -49 356 -97 412 -184 39 -62 51 -114 45 -193
-14 -201 -170 -307 -453 -308 -172 0 -334 39 -518 124 -43 20 -80 36 -82 36
-2 0 -4 -56 -4 -124 l0 -124 78 -26 c201 -66 351 -90 542 -89 458 2 700 191
700 545 0 162 -43 280 -135 372 -102 103 -206 147 -486 205 -247 52 -330 81
-384 136 -52 52 -69 109 -63 210 4 60 11 84 34 122 38 62 97 106 181 135 60
20 85 23 223 22 173 -1 240 -14 398 -79 48 -20 95 -39 105 -42 16 -5 17 5 17
115 l0 121 -70 21 c-220 66 -436 90 -610 70z"/>
</g>
</svg>
